<svg id="svg" xmlns="http://www.w3.org/2000/svg" xmlns:xlink="http://www.w3.org/1999/xlink" width="400" height="99.5008319467554" viewBox="0, 0, 400,99.5008319467554"><g id="svgg"><path id="path0" d="M0.000 49.750 L 0.000 99.500 200.000 99.500 L 400.000 99.500 400.000 49.750 L 400.000 0.000 200.000 0.000 L 0.000 0.000 0.000 49.750 M96.181 2.708 C 96.197 2.952,96.194 94.110,96.178 94.542 C 96.167 94.819,93.861 94.833,50.167 94.833 L 4.167 94.833 4.167 92.506 C 4.167 90.311,4.188 90.159,4.542 89.821 C 5.465 88.938,9.960 85.383,12.417 83.593 C 14.440 82.118,17.998 79.757,19.245 79.061 C 19.431 78.957,20.401 78.411,21.400 77.847 C 22.901 77.001,26.370 75.260,27.750 74.660 C 29.807 73.766,32.358 72.815,34.250 72.238 C 34.983 72.014,35.808 71.759,36.083 71.671 C 42.146 69.740,52.009 69.185,58.167 70.429 C 63.946 71.596,69.600 73.673,73.676 76.126 C 74.094 76.378,74.806 76.806,75.259 77.079 C 78.814 79.215,82.605 82.355,86.333 86.248 L 87.417 87.379 87.468 82.815 C 87.519 78.381,87.315 73.694,87.005 72.167 C 86.922 71.754,86.769 70.745,86.667 69.925 C 86.565 69.104,86.414 68.129,86.332 67.758 C 86.250 67.387,86.021 66.333,85.822 65.417 C 85.624 64.500,85.400 63.563,85.325 63.333 C 85.250 63.104,84.950 62.129,84.659 61.167 C 84.368 60.204,84.063 59.345,83.982 59.258 C 83.900 59.171,83.833 59.004,83.833 58.888 C 83.833 58.512,82.691 56.074,81.544 54.000 C 79.483 50.274,75.974 46.689,72.750 45.018 C 71.661 44.453,71.063 44.460,68.917 45.063 C 64.792 46.222,64.456 46.128,66.888 44.498 L 68.750 43.249 68.795 39.451 L 68.840 35.653 68.306 34.868 C 66.160 31.712,61.181 26.736,57.961 24.529 C 57.234 24.030,53.930 21.034,50.500 17.762 C 49.721 17.019,48.071 15.479,46.833 14.339 C 45.596 13.200,44.266 11.969,43.878 11.603 C 42.788 10.573,42.867 10.904,44.481 14.130 C 45.307 15.779,45.942 17.169,45.893 17.218 C 45.800 17.311,45.264 17.098,43.287 16.187 C 42.666 15.901,42.097 15.667,42.021 15.667 C 41.946 15.667,41.667 15.562,41.401 15.435 C 40.633 15.067,39.827 14.733,38.750 14.336 C 37.556 13.896,37.017 13.679,36.627 13.481 C 36.468 13.400,36.202 13.333,36.036 13.333 C 35.869 13.333,35.662 13.271,35.575 13.196 C 35.488 13.120,35.079 12.961,34.667 12.843 C 34.254 12.725,33.767 12.567,33.583 12.493 C 33.400 12.418,32.950 12.271,32.583 12.167 C 32.217 12.062,31.767 11.916,31.583 11.842 C 31.209 11.690,29.520 11.180,27.708 10.672 C 27.044 10.486,25.994 10.190,25.375 10.015 C 24.756 9.840,24.063 9.659,23.833 9.614 C 23.315 9.511,21.448 9.043,20.667 8.820 C 20.028 8.638,18.181 8.224,17.000 7.997 C 16.587 7.918,15.875 7.768,15.417 7.664 C 14.958 7.561,14.208 7.415,13.750 7.342 C 13.292 7.268,12.504 7.118,12.000 7.007 C 10.958 6.779,10.030 6.624,7.417 6.242 C 6.408 6.094,5.265 5.888,4.875 5.784 L 4.167 5.594 4.167 4.158 C 4.167 3.368,4.217 2.672,4.278 2.611 C 4.504 2.385,96.165 2.482,96.181 2.708 M195.959 48.709 L 196.001 94.834 149.959 94.792 L 103.917 94.750 103.874 48.833 C 103.851 23.579,103.867 2.823,103.911 2.708 C 103.974 2.542,113.270 2.508,149.953 2.541 L 195.917 2.583 195.959 48.709 M294.959 2.638 C 295.125 2.743,295.159 12.078,295.125 48.760 L 295.083 94.750 249.042 94.792 L 203.000 94.834 203.000 48.778 C 203.000 23.447,203.050 2.672,203.111 2.611 C 203.270 2.452,294.708 2.478,294.959 2.638 M394.625 48.709 L 394.667 94.834 348.625 94.792 L 302.583 94.750 302.541 48.760 C 302.508 12.078,302.542 2.743,302.708 2.637 C 302.823 2.564,323.542 2.522,348.750 2.544 L 394.583 2.583 394.625 48.709 M115.500 49.084 L 115.500 84.003 125.292 83.960 L 135.083 83.917 135.126 74.126 L 135.169 64.336 147.126 64.293 L 159.083 64.250 159.126 54.625 L 159.169 45.000 147.432 45.000 C 140.976 45.000,135.575 44.954,135.430 44.899 C 135.197 44.809,135.167 44.153,135.167 39.233 L 135.167 33.668 159.708 33.626 L 184.250 33.583 184.250 23.917 L 184.250 14.250 149.875 14.208 L 115.500 14.166 115.500 49.084 M214.743 14.375 C 214.699 14.490,214.683 18.858,214.707 24.083 L 214.750 33.583 227.041 33.626 L 239.332 33.669 239.374 58.793 L 239.417 83.917 249.000 83.917 L 258.583 83.917 258.626 58.792 L 258.668 33.667 271.084 33.667 L 283.500 33.667 283.500 23.917 L 283.500 14.167 249.161 14.167 C 221.844 14.167,214.807 14.209,214.743 14.375 M313.744 14.375 C 313.700 14.490,313.684 30.221,313.707 49.333 L 313.750 84.083 323.375 84.126 L 333.000 84.169 333.003 65.376 C 333.004 55.040,333.069 46.482,333.147 46.359 C 333.252 46.194,333.503 46.415,334.095 47.192 C 334.538 47.774,334.942 48.288,334.993 48.333 C 335.043 48.379,335.502 48.942,336.013 49.583 C 336.524 50.225,337.986 52.056,339.263 53.652 C 340.539 55.248,342.371 57.541,343.333 58.747 C 346.905 63.224,357.622 76.611,357.886 76.925 C 358.036 77.104,359.401 78.806,360.918 80.708 L 363.678 84.167 373.339 84.167 L 383.001 84.167 382.959 49.208 L 382.917 14.250 373.333 14.250 L 363.750 14.250 363.667 33.500 L 363.583 52.750 363.137 52.250 C 362.892 51.975,361.095 49.725,359.145 47.250 C 357.195 44.775,354.584 41.475,353.342 39.917 C 352.100 38.359,350.884 36.821,350.641 36.500 C 350.151 35.855,349.153 34.588,343.750 27.757 C 340.326 23.429,338.573 21.202,335.346 17.083 C 334.628 16.167,333.797 15.135,333.499 14.792 L 332.958 14.167 323.390 14.167 C 315.890 14.167,313.806 14.212,313.744 14.375 M28.737 34.145 C 28.786 34.225,29.059 34.337,29.343 34.394 C 29.627 34.450,30.098 34.602,30.388 34.730 C 30.889 34.950,31.714 35.261,33.708 35.983 C 34.190 36.158,35.183 36.528,35.917 36.806 C 36.650 37.085,37.962 37.573,38.833 37.892 C 43.483 39.594,46.559 40.730,47.750 41.184 C 48.483 41.463,49.458 41.830,49.917 41.999 C 50.375 42.168,51.538 42.604,52.500 42.967 C 53.462 43.330,55.143 43.954,56.234 44.355 C 58.518 45.193,58.427 45.250,55.159 45.022 C 52.264 44.821,52.333 44.798,52.333 45.951 C 52.333 48.314,50.095 50.096,47.167 50.065 C 44.091 50.033,42.083 48.268,42.083 45.595 L 42.083 44.250 39.767 44.128 C 37.037 43.984,37.042 43.987,38.000 43.197 C 40.080 41.482,40.314 41.967,36.092 39.250 C 27.511 33.728,27.910 34.000,28.373 34.000 C 28.524 34.000,28.687 34.065,28.737 34.145 " stroke="none" fill="#fbfafa" fill-rule="evenodd"></path><path id="path1" d="M4.278 2.611 C 4.217 2.672,4.167 3.368,4.167 4.158 L 4.167 5.594 4.875 5.784 C 5.265 5.888,6.408 6.094,7.417 6.242 C 10.030 6.624,10.958 6.779,12.000 7.007 C 12.504 7.118,13.292 7.268,13.750 7.342 C 14.208 7.415,14.958 7.561,15.417 7.664 C 15.875 7.768,16.587 7.918,17.000 7.997 C 18.181 8.224,20.028 8.638,20.667 8.820 C 21.448 9.043,23.315 9.511,23.833 9.614 C 24.063 9.659,24.756 9.840,25.375 10.015 C 25.994 10.190,27.044 10.486,27.708 10.672 C 29.520 11.180,31.209 11.690,31.583 11.842 C 31.767 11.916,32.217 12.062,32.583 12.167 C 32.950 12.271,33.400 12.418,33.583 12.493 C 33.767 12.567,34.254 12.725,34.667 12.843 C 35.079 12.961,35.488 13.120,35.575 13.196 C 35.662 13.271,35.869 13.333,36.036 13.333 C 36.202 13.333,36.468 13.400,36.627 13.481 C 37.017 13.679,37.556 13.896,38.750 14.336 C 39.827 14.733,40.633 15.067,41.401 15.435 C 41.667 15.562,41.946 15.667,42.021 15.667 C 42.097 15.667,42.666 15.901,43.287 16.187 C 45.264 17.098,45.800 17.311,45.893 17.218 C 45.942 17.169,45.307 15.779,44.481 14.130 C 42.867 10.904,42.788 10.573,43.878 11.603 C 44.266 11.969,45.596 13.200,46.833 14.339 C 48.071 15.479,49.721 17.019,50.500 17.762 C 53.930 21.034,57.234 24.030,57.961 24.529 C 61.181 26.736,66.160 31.712,68.306 34.868 L 68.840 35.653 68.795 39.451 L 68.750 43.249 66.888 44.498 C 64.456 46.128,64.792 46.222,68.917 45.063 C 71.063 44.460,71.661 44.453,72.750 45.018 C 75.974 46.689,79.483 50.274,81.544 54.000 C 82.691 56.074,83.833 58.512,83.833 58.888 C 83.833 59.004,83.900 59.171,83.982 59.258 C 84.063 59.345,84.368 60.204,84.659 61.167 C 84.950 62.129,85.250 63.104,85.325 63.333 C 85.400 63.563,85.624 64.500,85.822 65.417 C 86.021 66.333,86.250 67.387,86.332 67.758 C 86.414 68.129,86.565 69.104,86.667 69.925 C 86.769 70.745,86.922 71.754,87.005 72.167 C 87.315 73.694,87.519 78.381,87.468 82.815 L 87.417 87.379 86.333 86.248 C 82.605 82.355,78.814 79.215,75.259 77.079 C 74.806 76.806,74.094 76.378,73.676 76.126 C 69.600 73.673,63.946 71.596,58.167 70.429 C 52.009 69.185,42.146 69.740,36.083 71.671 C 35.808 71.759,34.983 72.014,34.250 72.238 C 32.358 72.815,29.807 73.766,27.750 74.660 C 26.370 75.260,22.901 77.001,21.400 77.847 C 20.401 78.411,19.431 78.957,19.245 79.061 C 17.998 79.757,14.440 82.118,12.417 83.593 C 9.960 85.383,5.465 88.938,4.542 89.821 C 4.188 90.159,4.167 90.311,4.167 92.506 L 4.167 94.833 50.167 94.833 C 93.861 94.833,96.167 94.819,96.178 94.542 C 96.194 94.110,96.197 2.952,96.181 2.708 C 96.165 2.482,4.504 2.385,4.278 2.611 M103.911 2.708 C 103.867 2.823,103.851 23.579,103.874 48.833 L 103.917 94.750 149.959 94.792 L 196.001 94.834 195.959 48.709 L 195.917 2.583 149.953 2.541 C 113.270 2.508,103.974 2.542,103.911 2.708 M203.111 2.611 C 203.050 2.672,203.000 23.447,203.000 48.778 L 203.000 94.834 249.042 94.792 L 295.083 94.750 295.125 48.760 C 295.159 12.078,295.125 2.743,294.959 2.638 C 294.708 2.478,203.270 2.452,203.111 2.611 M302.708 2.637 C 302.542 2.743,302.508 12.078,302.541 48.760 L 302.583 94.750 348.625 94.792 L 394.667 94.834 394.625 48.709 L 394.583 2.583 348.750 2.544 C 323.542 2.522,302.823 2.564,302.708 2.637 M184.250 23.917 L 184.250 33.583 159.708 33.626 L 135.167 33.668 135.167 39.233 C 135.167 44.153,135.197 44.809,135.430 44.899 C 135.575 44.954,140.976 45.000,147.432 45.000 L 159.169 45.000 159.126 54.625 L 159.083 64.250 147.126 64.293 L 135.169 64.336 135.126 74.126 L 135.083 83.917 125.292 83.960 L 115.500 84.003 115.500 49.084 L 115.500 14.166 149.875 14.208 L 184.250 14.250 184.250 23.917 M283.500 23.917 L 283.500 33.667 271.084 33.667 L 258.668 33.667 258.626 58.792 L 258.583 83.917 249.000 83.917 L 239.417 83.917 239.374 58.793 L 239.332 33.669 227.041 33.626 L 214.750 33.583 214.707 24.083 C 214.683 18.858,214.699 14.490,214.743 14.375 C 214.807 14.209,221.844 14.167,249.161 14.167 L 283.500 14.167 283.500 23.917 M333.499 14.792 C 333.797 15.135,334.628 16.167,335.346 17.083 C 338.573 21.202,340.326 23.429,343.750 27.757 C 349.153 34.588,350.151 35.855,350.641 36.500 C 350.884 36.821,352.100 38.359,353.342 39.917 C 354.584 41.475,357.195 44.775,359.145 47.250 C 361.095 49.725,362.892 51.975,363.137 52.250 L 363.583 52.750 363.667 33.500 L 363.750 14.250 373.333 14.250 L 382.917 14.250 382.959 49.208 L 383.001 84.167 373.339 84.167 L 363.678 84.167 360.918 80.708 C 359.401 78.806,358.036 77.104,357.886 76.925 C 357.622 76.611,346.905 63.224,343.333 58.747 C 342.371 57.541,340.539 55.248,339.263 53.652 C 337.986 52.056,336.524 50.225,336.013 49.583 C 335.502 48.942,335.043 48.379,334.993 48.333 C 334.942 48.288,334.538 47.774,334.095 47.192 C 333.503 46.415,333.252 46.194,333.147 46.359 C 333.069 46.482,333.004 55.040,333.003 65.376 L 333.000 84.169 323.375 84.126 L 313.750 84.083 313.707 49.333 C 313.684 30.221,313.700 14.490,313.744 14.375 C 313.806 14.212,315.890 14.167,323.390 14.167 L 332.958 14.167 333.499 14.792 M28.258 34.151 C 28.413 34.299,29.694 35.133,36.092 39.250 C 40.314 41.967,40.080 41.482,38.000 43.197 C 37.042 43.987,37.037 43.984,39.767 44.128 L 42.083 44.250 42.083 45.595 C 42.083 48.268,44.091 50.033,47.167 50.065 C 50.095 50.096,52.333 48.314,52.333 45.951 C 52.333 44.798,52.264 44.821,55.159 45.022 C 58.427 45.250,58.518 45.193,56.234 44.355 C 55.143 43.954,53.462 43.330,52.500 42.967 C 51.538 42.604,50.375 42.168,49.917 41.999 C 49.458 41.830,48.483 41.463,47.750 41.184 C 46.559 40.730,43.483 39.594,38.833 37.892 C 37.962 37.573,36.650 37.085,35.917 36.806 C 35.183 36.528,34.190 36.158,33.708 35.983 C 31.714 35.261,30.889 34.950,30.388 34.730 C 30.098 34.602,29.627 34.450,29.343 34.394 C 29.059 34.337,28.786 34.225,28.737 34.145 C 28.687 34.065,28.524 34.000,28.373 34.000 C 28.204 34.000,28.160 34.058,28.258 34.151 " stroke="none" fill="#c00" fill-rule="evenodd"></path></g></svg>
